# xmcd
#
# Track frame offsets: 
#        150
#        13645
#        28236
#        40501
#        52251
#        66311
#        79546
#        93221
#        106123
#        119261
#        133834
#        148358
#        161250
#        173899
#        187205
#        199174
#        212282
#        225270
#        237950
#        251626
#        264734
#        277698
#        287860
#        301259
#        317791
#        329585
#        340953
#
# Disc length: 4705 seconds
#
# Revision: 1
# Processed by: cddbd v1.5.2PL0 Copyright (c) Steve Scherf et al.
# Submitted via: ExactAudioCopyFreeDBPlugin 1.0
#
DISCID=89125f1b
DTITLE=The Carter Family - In The Shadow Of Clinch Mountain - Vol. 08
DYEAR=2000
DGENRE=Bluegrass
TTITLE0=There's No One Like Mother To Me
TTITLE1=In A Little Village Churchyard
TTITLE2=Jealous Hearted Me
TTITLE3=My Native Home
TTITLE4=Sweet Heaven In My View
TTITLE5=No Depression (In Heaven)
TTITLE6=Bonnie Blue Eyes
TTITLE7=My Honey Lou
TTITLE8=In The Shadow Of The Pines
TTITLE9=Answer To Weeping Willow
TTITLE10=You've Been A Friend To Me
TTITLE11=Where The Silvery Colorado Wends Its Way
TTITLE12=Lay My Head Beneath The Rose
TTITLE13=No Depression In Heaven
TTITLE14=My Native Home
TTITLE15=Jealous Hearted Me
TTITLE16=A Distant Land To Roam
TTITLE17=I'm Working On A Building
TTITLE18=East Virginia Blues, No. 2
TTITLE19=My Dixie Darling
TTITLE20=Keep On The Sunny Side
TTITLE21=Kissing Is A Crime
TTITLE22=Single Girl, Married Girl
TTITLE23=Little Darling Pal Of Mine
TTITLE24=Lonesome Valley
TTITLE25=Cannon Ball Blues
TTITLE26=Happy Or Lonesome
EXTD=Bear Family CD 15865 LK
EXTT0=08-JUN-1936, New York City
EXTT1=08-JUN-1936, New York City
EXTT2=08-JUN-1936, New York City
EXTT3=08-JUN-1936, New York City
EXTT4=08-JUN-1936, New York City
EXTT5=09-JUN-1936, New York City
EXTT6=09-JUN-1936, New York City
EXTT7=09-JUN-1936, New York City
EXTT8=09-JUN-1936, New York City
EXTT9=09-JUN-1936, New York City
EXTT10=09-JUN-1936, New York City
EXTT11=09-JUN-1936, New York City
EXTT12=09-JUN-1936, New York City
EXTT13=09-JUN-1936, New York City
EXTT14=09-JUN-1936, New York City
EXTT15=09-JUN-1936, New York City
EXTT16=09-JUN-1936, New York City
EXTT17=09-JUN-1936, New York City
EXTT18=10-JUN-1936, New York City
EXTT19=10-JUN-1936, New York City
EXTT20=10-JUN-1936, New York City
EXTT21=10-JUN-1936, New York City
EXTT22=10-JUN-1936, New York City
EXTT23=10-JUN-1936, New York City
EXTT24=10-JUN-1936, New York City
EXTT25=10-JUN-1936, New York City
EXTT26=10-JUN-1936, New York City
PLAYORDER=
